<mxfile host="app.diagrams.net" modified="2024-01-29T11:41:07.074Z" agent="Mozilla/5.0 (Windows NT 10.0; Win64; x64) AppleWebKit/537.36 (KHTML, like Gecko) Chrome/121.0.0.0 Safari/537.36 Edg/121.0.0.0" etag="EEmxZdBziMziop3l3Zn1" version="23.0.2" type="github">
  <diagram name="Trang-1" id="1QO2ivPM9eGkJM-EcB1Y">
    <mxGraphModel dx="1895" dy="481" grid="1" gridSize="10" guides="1" tooltips="1" connect="1" arrows="1" fold="1" page="1" pageScale="1" pageWidth="827" pageHeight="1169" math="0" shadow="0">
      <root>
        <mxCell id="0" />
        <mxCell id="1" parent="0" />
        <mxCell id="xuhgA4gw0YpgQ1Muc79V-1" style="edgeStyle=orthogonalEdgeStyle;rounded=0;orthogonalLoop=1;jettySize=auto;html=1;exitX=0.5;exitY=1;exitDx=0;exitDy=0;" parent="1" target="Z5t2Ctffni-CQSF2CJ5J-2" edge="1">
          <mxGeometry relative="1" as="geometry">
            <Array as="points">
              <mxPoint x="-420" y="270" />
              <mxPoint x="-420" y="270" />
            </Array>
            <mxPoint x="-420" y="240" as="sourcePoint" />
          </mxGeometry>
        </mxCell>
        <mxCell id="xuhgA4gw0YpgQ1Muc79V-5" style="edgeStyle=orthogonalEdgeStyle;rounded=0;orthogonalLoop=1;jettySize=auto;html=1;exitX=0.5;exitY=1;exitDx=0;exitDy=0;entryX=0.5;entryY=0;entryDx=0;entryDy=0;" parent="1" source="Z5t2Ctffni-CQSF2CJ5J-2" edge="1">
          <mxGeometry relative="1" as="geometry">
            <mxPoint x="-419" y="360" as="targetPoint" />
          </mxGeometry>
        </mxCell>
        <mxCell id="Z5t2Ctffni-CQSF2CJ5J-2" value="Init GPS&lt;br&gt;Init Simcom&lt;br&gt;Init IRQ" style="rounded=1;whiteSpace=wrap;html=1;" parent="1" vertex="1">
          <mxGeometry x="-479" y="270" width="120" height="60" as="geometry" />
        </mxCell>
        <mxCell id="Z5t2Ctffni-CQSF2CJ5J-3" value="&lt;b&gt;&lt;font style=&quot;font-size: 15px;&quot;&gt;MASTER&lt;/font&gt;&lt;/b&gt;" style="text;html=1;align=center;verticalAlign=middle;resizable=0;points=[];autosize=1;strokeColor=none;fillColor=none;strokeWidth=2;" parent="1" vertex="1">
          <mxGeometry x="-770" width="90" height="30" as="geometry" />
        </mxCell>
        <mxCell id="xuhgA4gw0YpgQ1Muc79V-2" value="&lt;b&gt;TIM3: 0.1s&lt;br&gt;&lt;br&gt;TIM4: 0.1ms&lt;/b&gt;" style="text;html=1;align=center;verticalAlign=middle;resizable=0;points=[];autosize=1;strokeColor=none;fillColor=none;" parent="1" vertex="1">
          <mxGeometry x="-675" y="30" width="90" height="60" as="geometry" />
        </mxCell>
        <mxCell id="xuhgA4gw0YpgQ1Muc79V-6" value="&lt;b&gt;f = 50Hz --&amp;gt; T = 20ms&lt;/b&gt;" style="text;html=1;align=center;verticalAlign=middle;resizable=0;points=[];autosize=1;strokeColor=none;fillColor=none;" parent="1" vertex="1">
          <mxGeometry x="-570" y="30" width="140" height="30" as="geometry" />
        </mxCell>
        <mxCell id="xuhgA4gw0YpgQ1Muc79V-11" value="&lt;b&gt;TIM_Callback&lt;/b&gt;" style="text;html=1;align=center;verticalAlign=middle;resizable=0;points=[];autosize=1;strokeColor=none;fillColor=none;" parent="1" vertex="1">
          <mxGeometry x="-203" y="20" width="100" height="30" as="geometry" />
        </mxCell>
        <mxCell id="xuhgA4gw0YpgQ1Muc79V-12" value="&lt;b&gt;TIM4 ---&amp;gt; tick++&lt;br&gt;TIM3 ---&amp;gt; phsA_connect = 0, STOP_IT(TIM3)&lt;/b&gt;" style="rounded=1;whiteSpace=wrap;html=1;" parent="1" vertex="1">
          <mxGeometry x="-274" y="50" width="250" height="60" as="geometry" />
        </mxCell>
        <mxCell id="xuhgA4gw0YpgQ1Muc79V-20" style="edgeStyle=orthogonalEdgeStyle;rounded=0;orthogonalLoop=1;jettySize=auto;html=1;exitX=0.5;exitY=1;exitDx=0;exitDy=0;entryX=0.5;entryY=0;entryDx=0;entryDy=0;" parent="1" target="xuhgA4gw0YpgQ1Muc79V-16" edge="1">
          <mxGeometry relative="1" as="geometry">
            <mxPoint x="-420" y="480" as="sourcePoint" />
            <Array as="points">
              <mxPoint x="-710" y="480" />
              <mxPoint x="-710" y="550" />
            </Array>
          </mxGeometry>
        </mxCell>
        <mxCell id="xuhgA4gw0YpgQ1Muc79V-26" style="edgeStyle=orthogonalEdgeStyle;rounded=0;orthogonalLoop=1;jettySize=auto;html=1;entryX=0.5;entryY=0;entryDx=0;entryDy=0;" parent="1" target="xuhgA4gw0YpgQ1Muc79V-17" edge="1">
          <mxGeometry relative="1" as="geometry">
            <mxPoint x="-300" y="480" as="sourcePoint" />
            <Array as="points">
              <mxPoint x="-525" y="480" />
            </Array>
          </mxGeometry>
        </mxCell>
        <mxCell id="xuhgA4gw0YpgQ1Muc79V-28" style="edgeStyle=orthogonalEdgeStyle;rounded=0;orthogonalLoop=1;jettySize=auto;html=1;exitX=0.5;exitY=0;exitDx=0;exitDy=0;entryX=0.5;entryY=0;entryDx=0;entryDy=0;endArrow=classic;endFill=1;" parent="1" source="xuhgA4gw0YpgQ1Muc79V-38" target="xuhgA4gw0YpgQ1Muc79V-36" edge="1">
          <mxGeometry relative="1" as="geometry">
            <mxPoint x="-299" y="550" as="targetPoint" />
            <Array as="points">
              <mxPoint x="-120" y="480" />
              <mxPoint x="-299" y="480" />
            </Array>
          </mxGeometry>
        </mxCell>
        <mxCell id="xuhgA4gw0YpgQ1Muc79V-46" style="edgeStyle=orthogonalEdgeStyle;rounded=0;orthogonalLoop=1;jettySize=auto;html=1;exitX=0.5;exitY=1;exitDx=0;exitDy=0;" parent="1" source="xuhgA4gw0YpgQ1Muc79V-14" edge="1">
          <mxGeometry relative="1" as="geometry">
            <mxPoint x="-420" y="480" as="targetPoint" />
          </mxGeometry>
        </mxCell>
        <mxCell id="xuhgA4gw0YpgQ1Muc79V-14" value="IO_IRQ?" style="rhombus;whiteSpace=wrap;html=1;" parent="1" vertex="1">
          <mxGeometry x="-460" y="360" width="80" height="80" as="geometry" />
        </mxCell>
        <mxCell id="xuhgA4gw0YpgQ1Muc79V-24" style="edgeStyle=orthogonalEdgeStyle;rounded=0;orthogonalLoop=1;jettySize=auto;html=1;exitX=0.5;exitY=1;exitDx=0;exitDy=0;entryX=0.5;entryY=0;entryDx=0;entryDy=0;" parent="1" source="xuhgA4gw0YpgQ1Muc79V-16" target="xuhgA4gw0YpgQ1Muc79V-22" edge="1">
          <mxGeometry relative="1" as="geometry" />
        </mxCell>
        <mxCell id="xuhgA4gw0YpgQ1Muc79V-16" value="fix_gps = 1&lt;br&gt;" style="rounded=1;whiteSpace=wrap;html=1;" parent="1" vertex="1">
          <mxGeometry x="-770" y="550" width="120" height="60" as="geometry" />
        </mxCell>
        <mxCell id="xuhgA4gw0YpgQ1Muc79V-34" value="" style="edgeStyle=orthogonalEdgeStyle;rounded=0;orthogonalLoop=1;jettySize=auto;html=1;" parent="1" source="xuhgA4gw0YpgQ1Muc79V-17" target="xuhgA4gw0YpgQ1Muc79V-32" edge="1">
          <mxGeometry relative="1" as="geometry" />
        </mxCell>
        <mxCell id="xuhgA4gw0YpgQ1Muc79V-17" value="phsA_connect = 1&lt;br&gt;start_timer3_IT&lt;br&gt;start_phsA = 1" style="rounded=1;whiteSpace=wrap;html=1;" parent="1" vertex="1">
          <mxGeometry x="-585" y="550" width="120" height="60" as="geometry" />
        </mxCell>
        <mxCell id="xuhgA4gw0YpgQ1Muc79V-21" value="PPS_Pin" style="text;html=1;align=center;verticalAlign=middle;resizable=0;points=[];autosize=1;strokeColor=none;fillColor=none;" parent="1" vertex="1">
          <mxGeometry x="-720" y="490" width="70" height="30" as="geometry" />
        </mxCell>
        <mxCell id="xuhgA4gw0YpgQ1Muc79V-25" value="" style="edgeStyle=orthogonalEdgeStyle;rounded=0;orthogonalLoop=1;jettySize=auto;html=1;" parent="1" source="xuhgA4gw0YpgQ1Muc79V-22" target="xuhgA4gw0YpgQ1Muc79V-23" edge="1">
          <mxGeometry relative="1" as="geometry" />
        </mxCell>
        <mxCell id="Pxlx5N2snAkm-Ul4sZ53-2" style="edgeStyle=orthogonalEdgeStyle;rounded=0;orthogonalLoop=1;jettySize=auto;html=1;exitX=1;exitY=0.5;exitDx=0;exitDy=0;" edge="1" parent="1" source="xuhgA4gw0YpgQ1Muc79V-22">
          <mxGeometry relative="1" as="geometry">
            <mxPoint x="-710" y="640" as="targetPoint" />
            <Array as="points">
              <mxPoint x="-635" y="715" />
              <mxPoint x="-635" y="640" />
            </Array>
          </mxGeometry>
        </mxCell>
        <mxCell id="xuhgA4gw0YpgQ1Muc79V-22" value="startSample&amp;amp;&amp;amp;&lt;br&gt;!start_timer" style="rhombus;whiteSpace=wrap;html=1;" parent="1" vertex="1">
          <mxGeometry x="-765" y="660" width="110" height="110" as="geometry" />
        </mxCell>
        <mxCell id="Pxlx5N2snAkm-Ul4sZ53-29" style="edgeStyle=orthogonalEdgeStyle;rounded=0;orthogonalLoop=1;jettySize=auto;html=1;exitX=0;exitY=0.5;exitDx=0;exitDy=0;" edge="1" parent="1" source="xuhgA4gw0YpgQ1Muc79V-23">
          <mxGeometry relative="1" as="geometry">
            <mxPoint x="-810" y="865.0769230769231" as="targetPoint" />
          </mxGeometry>
        </mxCell>
        <mxCell id="xuhgA4gw0YpgQ1Muc79V-23" value="tick = 0;&lt;br&gt;lastTick[] = {0}&lt;br&gt;start_timer4_IT&lt;br&gt;start_timer = 1&lt;br&gt;start_phsA = 0" style="rounded=1;whiteSpace=wrap;html=1;" parent="1" vertex="1">
          <mxGeometry x="-762.5" y="830" width="105" height="70" as="geometry" />
        </mxCell>
        <mxCell id="xuhgA4gw0YpgQ1Muc79V-27" value="L1_Pin" style="text;html=1;align=center;verticalAlign=middle;resizable=0;points=[];autosize=1;strokeColor=none;fillColor=none;" parent="1" vertex="1">
          <mxGeometry x="-525" y="490" width="60" height="30" as="geometry" />
        </mxCell>
        <mxCell id="xuhgA4gw0YpgQ1Muc79V-29" value="L2_Pin" style="text;html=1;align=center;verticalAlign=middle;resizable=0;points=[];autosize=1;strokeColor=none;fillColor=none;" parent="1" vertex="1">
          <mxGeometry x="-304" y="490" width="60" height="30" as="geometry" />
        </mxCell>
        <mxCell id="xuhgA4gw0YpgQ1Muc79V-31" value="L3_Pin" style="text;html=1;align=center;verticalAlign=middle;resizable=0;points=[];autosize=1;strokeColor=none;fillColor=none;" parent="1" vertex="1">
          <mxGeometry x="-125" y="490" width="60" height="30" as="geometry" />
        </mxCell>
        <mxCell id="xuhgA4gw0YpgQ1Muc79V-35" value="" style="edgeStyle=orthogonalEdgeStyle;rounded=0;orthogonalLoop=1;jettySize=auto;html=1;" parent="1" source="xuhgA4gw0YpgQ1Muc79V-32" target="xuhgA4gw0YpgQ1Muc79V-33" edge="1">
          <mxGeometry relative="1" as="geometry" />
        </mxCell>
        <mxCell id="Pxlx5N2snAkm-Ul4sZ53-3" style="edgeStyle=orthogonalEdgeStyle;rounded=0;orthogonalLoop=1;jettySize=auto;html=1;exitX=1;exitY=0.5;exitDx=0;exitDy=0;" edge="1" parent="1" source="xuhgA4gw0YpgQ1Muc79V-32">
          <mxGeometry relative="1" as="geometry">
            <mxPoint x="-525" y="640" as="targetPoint" />
            <Array as="points">
              <mxPoint x="-429" y="715" />
            </Array>
          </mxGeometry>
        </mxCell>
        <mxCell id="xuhgA4gw0YpgQ1Muc79V-32" value="start_timer" style="rhombus;whiteSpace=wrap;html=1;" parent="1" vertex="1">
          <mxGeometry x="-565" y="675" width="80" height="80" as="geometry" />
        </mxCell>
        <mxCell id="xuhgA4gw0YpgQ1Muc79V-52" style="edgeStyle=orthogonalEdgeStyle;rounded=0;orthogonalLoop=1;jettySize=auto;html=1;exitX=0.5;exitY=1;exitDx=0;exitDy=0;" parent="1" source="xuhgA4gw0YpgQ1Muc79V-33" edge="1">
          <mxGeometry relative="1" as="geometry">
            <mxPoint x="-300" y="1000" as="targetPoint" />
          </mxGeometry>
        </mxCell>
        <mxCell id="xuhgA4gw0YpgQ1Muc79V-33" value="phsA_time[phsA_cnt++] = tick - lastTick[0]&lt;br&gt;lastTick[0] = tick;" style="rounded=1;whiteSpace=wrap;html=1;" parent="1" vertex="1">
          <mxGeometry x="-603.75" y="820" width="157.5" height="60" as="geometry" />
        </mxCell>
        <mxCell id="xuhgA4gw0YpgQ1Muc79V-44" style="edgeStyle=orthogonalEdgeStyle;rounded=0;orthogonalLoop=1;jettySize=auto;html=1;exitX=0.5;exitY=1;exitDx=0;exitDy=0;entryX=0.5;entryY=0;entryDx=0;entryDy=0;" parent="1" source="xuhgA4gw0YpgQ1Muc79V-36" target="xuhgA4gw0YpgQ1Muc79V-42" edge="1">
          <mxGeometry relative="1" as="geometry" />
        </mxCell>
        <mxCell id="Pxlx5N2snAkm-Ul4sZ53-4" style="edgeStyle=orthogonalEdgeStyle;rounded=0;orthogonalLoop=1;jettySize=auto;html=1;exitX=1;exitY=0.5;exitDx=0;exitDy=0;" edge="1" parent="1" source="xuhgA4gw0YpgQ1Muc79V-36">
          <mxGeometry relative="1" as="geometry">
            <mxPoint x="-300" y="640" as="targetPoint" />
            <Array as="points">
              <mxPoint x="-199" y="728" />
              <mxPoint x="-199" y="640" />
            </Array>
          </mxGeometry>
        </mxCell>
        <mxCell id="xuhgA4gw0YpgQ1Muc79V-36" value="start_timer&amp;amp;&amp;amp;&lt;br&gt;start_phsA" style="rhombus;whiteSpace=wrap;html=1;" parent="1" vertex="1">
          <mxGeometry x="-354" y="665" width="110" height="105" as="geometry" />
        </mxCell>
        <mxCell id="xuhgA4gw0YpgQ1Muc79V-45" style="edgeStyle=orthogonalEdgeStyle;rounded=0;orthogonalLoop=1;jettySize=auto;html=1;exitX=0.5;exitY=1;exitDx=0;exitDy=0;entryX=0.5;entryY=0;entryDx=0;entryDy=0;" parent="1" source="xuhgA4gw0YpgQ1Muc79V-38" target="xuhgA4gw0YpgQ1Muc79V-43" edge="1">
          <mxGeometry relative="1" as="geometry" />
        </mxCell>
        <mxCell id="xuhgA4gw0YpgQ1Muc79V-38" value="start_timer&amp;amp;&amp;amp;&lt;br&gt;start_phsA" style="rhombus;whiteSpace=wrap;html=1;" parent="1" vertex="1">
          <mxGeometry x="-175" y="675" width="110" height="105" as="geometry" />
        </mxCell>
        <mxCell id="xuhgA4gw0YpgQ1Muc79V-50" style="edgeStyle=orthogonalEdgeStyle;rounded=0;orthogonalLoop=1;jettySize=auto;html=1;exitX=0.5;exitY=1;exitDx=0;exitDy=0;" parent="1" source="xuhgA4gw0YpgQ1Muc79V-42" edge="1">
          <mxGeometry relative="1" as="geometry">
            <mxPoint x="-300" y="1000" as="targetPoint" />
          </mxGeometry>
        </mxCell>
        <mxCell id="xuhgA4gw0YpgQ1Muc79V-42" value="phsB_time[phsB_cnt++] = tick - lastTick[1]&lt;br&gt;lastTick[1] = tick" style="rounded=1;whiteSpace=wrap;html=1;" parent="1" vertex="1">
          <mxGeometry x="-375.75" y="820" width="153.5" height="60" as="geometry" />
        </mxCell>
        <mxCell id="xuhgA4gw0YpgQ1Muc79V-51" style="edgeStyle=orthogonalEdgeStyle;rounded=0;orthogonalLoop=1;jettySize=auto;html=1;exitX=0.5;exitY=1;exitDx=0;exitDy=0;" parent="1" source="xuhgA4gw0YpgQ1Muc79V-43" edge="1">
          <mxGeometry relative="1" as="geometry">
            <mxPoint x="-300" y="1000" as="targetPoint" />
          </mxGeometry>
        </mxCell>
        <mxCell id="xuhgA4gw0YpgQ1Muc79V-43" value="phsC_time[phsC_cnt++] = tick - lastTick[2]&lt;br&gt;lastTick[2] = tick" style="rounded=1;whiteSpace=wrap;html=1;" parent="1" vertex="1">
          <mxGeometry x="-196.75" y="820" width="153.5" height="60" as="geometry" />
        </mxCell>
        <mxCell id="xuhgA4gw0YpgQ1Muc79V-56" style="edgeStyle=orthogonalEdgeStyle;rounded=0;orthogonalLoop=1;jettySize=auto;html=1;exitX=0.5;exitY=1;exitDx=0;exitDy=0;entryX=0.5;entryY=0;entryDx=0;entryDy=0;" parent="1" source="xuhgA4gw0YpgQ1Muc79V-54" target="xuhgA4gw0YpgQ1Muc79V-55" edge="1">
          <mxGeometry relative="1" as="geometry" />
        </mxCell>
        <mxCell id="xuhgA4gw0YpgQ1Muc79V-57" style="edgeStyle=orthogonalEdgeStyle;rounded=0;orthogonalLoop=1;jettySize=auto;html=1;exitX=0.038;exitY=0.551;exitDx=0;exitDy=0;entryX=0;entryY=0.5;entryDx=0;entryDy=0;exitPerimeter=0;" parent="1" source="xuhgA4gw0YpgQ1Muc79V-54" target="xuhgA4gw0YpgQ1Muc79V-14" edge="1">
          <mxGeometry relative="1" as="geometry">
            <mxPoint x="-465.5700000000002" y="410" as="targetPoint" />
            <mxPoint x="-354.06999999999977" y="1060" as="sourcePoint" />
            <Array as="points">
              <mxPoint x="-806" y="1055" />
              <mxPoint x="-806" y="400" />
            </Array>
          </mxGeometry>
        </mxCell>
        <mxCell id="xuhgA4gw0YpgQ1Muc79V-54" value="phsX_cnt &amp;gt;= 15" style="rhombus;whiteSpace=wrap;html=1;" parent="1" vertex="1">
          <mxGeometry x="-348.5" y="1000" width="99" height="100" as="geometry" />
        </mxCell>
        <mxCell id="Pxlx5N2snAkm-Ul4sZ53-28" value="" style="edgeStyle=orthogonalEdgeStyle;rounded=0;orthogonalLoop=1;jettySize=auto;html=1;" edge="1" parent="1" source="xuhgA4gw0YpgQ1Muc79V-55" target="Pxlx5N2snAkm-Ul4sZ53-24">
          <mxGeometry relative="1" as="geometry" />
        </mxCell>
        <mxCell id="xuhgA4gw0YpgQ1Muc79V-55" value="phsA_cnt = phsB_cnt = phsC_cnt = 0&lt;br&gt;Stop_IT_TIM4&lt;br&gt;start_timer = 0&lt;br&gt;offset[0] = phsA_time[0]&lt;br&gt;offset[1] = phsB_time[0]&lt;br&gt;offset[2] = phsC_time[0]&lt;br&gt;memset(phsX_time)&lt;br&gt;Send data to simcom via UART" style="rounded=1;whiteSpace=wrap;html=1;" parent="1" vertex="1">
          <mxGeometry x="-404" y="1140" width="210" height="140" as="geometry" />
        </mxCell>
        <mxCell id="xuhgA4gw0YpgQ1Muc79V-58" value="Y" style="text;html=1;align=center;verticalAlign=middle;resizable=0;points=[];autosize=1;strokeColor=none;fillColor=none;" parent="1" vertex="1">
          <mxGeometry x="-304" y="1100" width="30" height="30" as="geometry" />
        </mxCell>
        <mxCell id="xuhgA4gw0YpgQ1Muc79V-59" value="N" style="text;html=1;align=center;verticalAlign=middle;resizable=0;points=[];autosize=1;strokeColor=none;fillColor=none;" parent="1" vertex="1">
          <mxGeometry x="-390" y="1030" width="30" height="30" as="geometry" />
        </mxCell>
        <mxCell id="xuhgA4gw0YpgQ1Muc79V-64" value="&lt;font style=&quot;font-size: 15px;&quot;&gt;&lt;b&gt;Slave&lt;/b&gt;&lt;/font&gt;" style="text;html=1;align=center;verticalAlign=middle;resizable=0;points=[];autosize=1;strokeColor=none;fillColor=none;" parent="1" vertex="1">
          <mxGeometry x="20" y="30" width="60" height="30" as="geometry" />
        </mxCell>
        <mxCell id="xuhgA4gw0YpgQ1Muc79V-65" value="&lt;b&gt;TIM4: 0.1ms&lt;/b&gt;" style="text;html=1;align=center;verticalAlign=middle;resizable=0;points=[];autosize=1;strokeColor=none;fillColor=none;" parent="1" vertex="1">
          <mxGeometry x="40" y="60" width="90" height="30" as="geometry" />
        </mxCell>
        <mxCell id="xuhgA4gw0YpgQ1Muc79V-70" style="edgeStyle=orthogonalEdgeStyle;rounded=0;orthogonalLoop=1;jettySize=auto;html=1;exitX=0.5;exitY=1;exitDx=0;exitDy=0;entryX=0.5;entryY=0;entryDx=0;entryDy=0;" parent="1" source="xuhgA4gw0YpgQ1Muc79V-66" target="xuhgA4gw0YpgQ1Muc79V-67" edge="1">
          <mxGeometry relative="1" as="geometry" />
        </mxCell>
        <mxCell id="xuhgA4gw0YpgQ1Muc79V-66" value="Start" style="rounded=1;whiteSpace=wrap;html=1;" parent="1" vertex="1">
          <mxGeometry x="380" y="170" width="120" height="60" as="geometry" />
        </mxCell>
        <mxCell id="xuhgA4gw0YpgQ1Muc79V-73" value="" style="edgeStyle=orthogonalEdgeStyle;rounded=0;orthogonalLoop=1;jettySize=auto;html=1;" parent="1" source="xuhgA4gw0YpgQ1Muc79V-67" target="xuhgA4gw0YpgQ1Muc79V-72" edge="1">
          <mxGeometry relative="1" as="geometry" />
        </mxCell>
        <mxCell id="xuhgA4gw0YpgQ1Muc79V-67" value="Get Data from MQTT&lt;br&gt;ParseRefData" style="rounded=1;whiteSpace=wrap;html=1;fillColor=#d5e8d4;strokeColor=#82b366;" parent="1" vertex="1">
          <mxGeometry x="380" y="270" width="120" height="60" as="geometry" />
        </mxCell>
        <mxCell id="xuhgA4gw0YpgQ1Muc79V-71" value="&lt;b&gt;RefData: Timestamp, phsA, phsB, phsC, sequence&lt;/b&gt;" style="text;html=1;align=center;verticalAlign=middle;resizable=0;points=[];autosize=1;strokeColor=none;fillColor=none;" parent="1" vertex="1">
          <mxGeometry x="40" y="90" width="310" height="30" as="geometry" />
        </mxCell>
        <mxCell id="xuhgA4gw0YpgQ1Muc79V-75" value="" style="edgeStyle=orthogonalEdgeStyle;rounded=0;orthogonalLoop=1;jettySize=auto;html=1;" parent="1" source="xuhgA4gw0YpgQ1Muc79V-72" edge="1">
          <mxGeometry relative="1" as="geometry">
            <mxPoint x="270" y="554" as="targetPoint" />
            <Array as="points">
              <mxPoint x="440" y="510" />
              <mxPoint x="270" y="510" />
            </Array>
          </mxGeometry>
        </mxCell>
        <mxCell id="xuhgA4gw0YpgQ1Muc79V-77" style="edgeStyle=orthogonalEdgeStyle;rounded=0;orthogonalLoop=1;jettySize=auto;html=1;exitX=0.5;exitY=1;exitDx=0;exitDy=0;entryX=0.5;entryY=0;entryDx=0;entryDy=0;" parent="1" source="xuhgA4gw0YpgQ1Muc79V-72" target="xuhgA4gw0YpgQ1Muc79V-85" edge="1">
          <mxGeometry relative="1" as="geometry">
            <mxPoint x="570" y="554" as="targetPoint" />
            <Array as="points">
              <mxPoint x="440" y="510" />
              <mxPoint x="570" y="510" />
            </Array>
          </mxGeometry>
        </mxCell>
        <mxCell id="xuhgA4gw0YpgQ1Muc79V-72" value="IO_IRQ?" style="rhombus;whiteSpace=wrap;html=1;" parent="1" vertex="1">
          <mxGeometry x="400" y="390" width="80" height="80" as="geometry" />
        </mxCell>
        <mxCell id="xuhgA4gw0YpgQ1Muc79V-78" value="PPS_Pin" style="text;html=1;align=center;verticalAlign=middle;resizable=0;points=[];autosize=1;strokeColor=none;fillColor=none;" parent="1" vertex="1">
          <mxGeometry x="260" y="520" width="70" height="30" as="geometry" />
        </mxCell>
        <mxCell id="xuhgA4gw0YpgQ1Muc79V-79" value="L1_Pin" style="text;html=1;align=center;verticalAlign=middle;resizable=0;points=[];autosize=1;strokeColor=none;fillColor=none;" parent="1" vertex="1">
          <mxGeometry x="508.75" y="520" width="60" height="30" as="geometry" />
        </mxCell>
        <mxCell id="xuhgA4gw0YpgQ1Muc79V-82" value="" style="edgeStyle=orthogonalEdgeStyle;rounded=0;orthogonalLoop=1;jettySize=auto;html=1;" parent="1" source="xuhgA4gw0YpgQ1Muc79V-80" target="xuhgA4gw0YpgQ1Muc79V-81" edge="1">
          <mxGeometry relative="1" as="geometry" />
        </mxCell>
        <mxCell id="xuhgA4gw0YpgQ1Muc79V-80" value="fix_gps = 1&lt;br&gt;" style="rounded=1;whiteSpace=wrap;html=1;" parent="1" vertex="1">
          <mxGeometry x="210" y="555" width="120" height="60" as="geometry" />
        </mxCell>
        <mxCell id="xuhgA4gw0YpgQ1Muc79V-84" value="" style="edgeStyle=orthogonalEdgeStyle;rounded=0;orthogonalLoop=1;jettySize=auto;html=1;" parent="1" source="xuhgA4gw0YpgQ1Muc79V-81" target="xuhgA4gw0YpgQ1Muc79V-83" edge="1">
          <mxGeometry relative="1" as="geometry" />
        </mxCell>
        <mxCell id="xuhgA4gw0YpgQ1Muc79V-81" value="startSample&amp;amp;&amp;amp;&lt;br&gt;!start_timer" style="rhombus;whiteSpace=wrap;html=1;" parent="1" vertex="1">
          <mxGeometry x="215" y="650" width="110" height="110" as="geometry" />
        </mxCell>
        <mxCell id="xuhgA4gw0YpgQ1Muc79V-105" style="edgeStyle=orthogonalEdgeStyle;rounded=0;orthogonalLoop=1;jettySize=auto;html=1;exitX=0;exitY=0.5;exitDx=0;exitDy=0;entryX=0;entryY=0.5;entryDx=0;entryDy=0;" parent="1" source="xuhgA4gw0YpgQ1Muc79V-83" target="xuhgA4gw0YpgQ1Muc79V-72" edge="1">
          <mxGeometry relative="1" as="geometry">
            <mxPoint x="129.99999999999977" y="430" as="targetPoint" />
            <mxPoint x="189.99999999999977" y="840" as="sourcePoint" />
            <Array as="points">
              <mxPoint x="100" y="840" />
              <mxPoint x="100" y="430" />
            </Array>
          </mxGeometry>
        </mxCell>
        <mxCell id="xuhgA4gw0YpgQ1Muc79V-83" value="tick = 0;&lt;br&gt;lastTick[0] = {0}&lt;br&gt;start_timer4_IT&lt;br&gt;start_timer = 1" style="rounded=1;whiteSpace=wrap;html=1;" parent="1" vertex="1">
          <mxGeometry x="210" y="800" width="120" height="80" as="geometry" />
        </mxCell>
        <mxCell id="xuhgA4gw0YpgQ1Muc79V-87" value="" style="edgeStyle=orthogonalEdgeStyle;rounded=0;orthogonalLoop=1;jettySize=auto;html=1;" parent="1" source="xuhgA4gw0YpgQ1Muc79V-85" target="xuhgA4gw0YpgQ1Muc79V-86" edge="1">
          <mxGeometry relative="1" as="geometry" />
        </mxCell>
        <mxCell id="xuhgA4gw0YpgQ1Muc79V-85" value="start_timer" style="rhombus;whiteSpace=wrap;html=1;" parent="1" vertex="1">
          <mxGeometry x="531.2" y="605" width="80" height="80" as="geometry" />
        </mxCell>
        <mxCell id="xuhgA4gw0YpgQ1Muc79V-88" style="edgeStyle=orthogonalEdgeStyle;rounded=0;orthogonalLoop=1;jettySize=auto;html=1;exitX=0.5;exitY=1;exitDx=0;exitDy=0;" parent="1" source="xuhgA4gw0YpgQ1Muc79V-86" edge="1">
          <mxGeometry relative="1" as="geometry">
            <mxPoint x="571.6117647058825" y="889.9999999999998" as="targetPoint" />
          </mxGeometry>
        </mxCell>
        <mxCell id="xuhgA4gw0YpgQ1Muc79V-86" value="phsA_time[phsA_cnt++] = tick - lastTick[0]&lt;br&gt;lastTick[0] = tick;" style="rounded=1;whiteSpace=wrap;html=1;" parent="1" vertex="1">
          <mxGeometry x="492.45" y="740" width="157.5" height="60" as="geometry" />
        </mxCell>
        <mxCell id="xuhgA4gw0YpgQ1Muc79V-92" value="" style="edgeStyle=orthogonalEdgeStyle;rounded=0;orthogonalLoop=1;jettySize=auto;html=1;" parent="1" source="xuhgA4gw0YpgQ1Muc79V-90" target="xuhgA4gw0YpgQ1Muc79V-91" edge="1">
          <mxGeometry relative="1" as="geometry" />
        </mxCell>
        <mxCell id="xuhgA4gw0YpgQ1Muc79V-98" style="edgeStyle=orthogonalEdgeStyle;rounded=0;orthogonalLoop=1;jettySize=auto;html=1;exitX=1;exitY=0.5;exitDx=0;exitDy=0;entryX=1;entryY=0.5;entryDx=0;entryDy=0;" parent="1" source="xuhgA4gw0YpgQ1Muc79V-90" target="xuhgA4gw0YpgQ1Muc79V-72" edge="1">
          <mxGeometry relative="1" as="geometry">
            <mxPoint x="775" y="422" as="targetPoint" />
            <mxPoint x="600" y="1031.9999999999998" as="sourcePoint" />
            <Array as="points">
              <mxPoint x="790" y="880" />
              <mxPoint x="790" y="430" />
            </Array>
          </mxGeometry>
        </mxCell>
        <mxCell id="xuhgA4gw0YpgQ1Muc79V-90" value="phsA_cnt &amp;gt;= 5" style="rhombus;whiteSpace=wrap;html=1;" parent="1" vertex="1">
          <mxGeometry x="524.95" y="830" width="90" height="100" as="geometry" />
        </mxCell>
        <mxCell id="xuhgA4gw0YpgQ1Muc79V-95" value="" style="edgeStyle=orthogonalEdgeStyle;rounded=0;orthogonalLoop=1;jettySize=auto;html=1;" parent="1" source="xuhgA4gw0YpgQ1Muc79V-91" edge="1">
          <mxGeometry relative="1" as="geometry">
            <mxPoint x="569.95" y="1080" as="targetPoint" />
          </mxGeometry>
        </mxCell>
        <mxCell id="xuhgA4gw0YpgQ1Muc79V-91" value="phsA_cnt = 0&lt;br&gt;Stop_IT_TIM4&lt;br&gt;start_timer = 0&lt;br&gt;offset[0] = phsA_time[0]" style="rounded=1;whiteSpace=wrap;html=1;" parent="1" vertex="1">
          <mxGeometry x="489.95" y="970" width="160" height="60" as="geometry" />
        </mxCell>
        <mxCell id="xuhgA4gw0YpgQ1Muc79V-96" value="" style="edgeStyle=orthogonalEdgeStyle;rounded=0;orthogonalLoop=1;jettySize=auto;html=1;" parent="1" target="xuhgA4gw0YpgQ1Muc79V-94" edge="1">
          <mxGeometry relative="1" as="geometry">
            <mxPoint x="569.95" y="1120" as="sourcePoint" />
          </mxGeometry>
        </mxCell>
        <mxCell id="xuhgA4gw0YpgQ1Muc79V-93" value="measureData[cnt++].phsA = offset[0]" style="rounded=1;whiteSpace=wrap;html=1;" parent="1" vertex="1">
          <mxGeometry x="481.2" y="1080" width="180" height="60" as="geometry" />
        </mxCell>
        <mxCell id="xuhgA4gw0YpgQ1Muc79V-101" style="edgeStyle=orthogonalEdgeStyle;rounded=0;orthogonalLoop=1;jettySize=auto;html=1;exitX=0.5;exitY=1;exitDx=0;exitDy=0;entryX=0.5;entryY=0;entryDx=0;entryDy=0;" parent="1" source="xuhgA4gw0YpgQ1Muc79V-94" target="xuhgA4gw0YpgQ1Muc79V-97" edge="1">
          <mxGeometry relative="1" as="geometry" />
        </mxCell>
        <mxCell id="xuhgA4gw0YpgQ1Muc79V-102" style="edgeStyle=orthogonalEdgeStyle;rounded=0;orthogonalLoop=1;jettySize=auto;html=1;exitX=0;exitY=0.5;exitDx=0;exitDy=0;entryX=0;entryY=0.5;entryDx=0;entryDy=0;" parent="1" source="xuhgA4gw0YpgQ1Muc79V-94" edge="1">
          <mxGeometry relative="1" as="geometry">
            <mxPoint x="479.95" y="1090" as="targetPoint" />
            <Array as="points">
              <mxPoint x="399.95" y="1200" />
              <mxPoint x="399.95" y="1090" />
            </Array>
          </mxGeometry>
        </mxCell>
        <mxCell id="xuhgA4gw0YpgQ1Muc79V-94" value="cnt = 9" style="rhombus;whiteSpace=wrap;html=1;" parent="1" vertex="1">
          <mxGeometry x="529.95" y="1160" width="80" height="80" as="geometry" />
        </mxCell>
        <mxCell id="Pxlx5N2snAkm-Ul4sZ53-27" value="" style="edgeStyle=orthogonalEdgeStyle;rounded=0;orthogonalLoop=1;jettySize=auto;html=1;" edge="1" parent="1" source="xuhgA4gw0YpgQ1Muc79V-97" target="Pxlx5N2snAkm-Ul4sZ53-26">
          <mxGeometry relative="1" as="geometry" />
        </mxCell>
        <mxCell id="xuhgA4gw0YpgQ1Muc79V-97" value="EndMeas&lt;br&gt;Calc_phase" style="rounded=1;whiteSpace=wrap;html=1;" parent="1" vertex="1">
          <mxGeometry x="509.95" y="1270" width="120" height="60" as="geometry" />
        </mxCell>
        <mxCell id="xuhgA4gw0YpgQ1Muc79V-99" value="N" style="text;html=1;align=center;verticalAlign=middle;resizable=0;points=[];autosize=1;strokeColor=none;fillColor=none;" parent="1" vertex="1">
          <mxGeometry x="619.95" y="850" width="30" height="30" as="geometry" />
        </mxCell>
        <mxCell id="xuhgA4gw0YpgQ1Muc79V-100" value="Y" style="text;html=1;align=center;verticalAlign=middle;resizable=0;points=[];autosize=1;strokeColor=none;fillColor=none;" parent="1" vertex="1">
          <mxGeometry x="564.95" y="948" width="30" height="30" as="geometry" />
        </mxCell>
        <mxCell id="xuhgA4gw0YpgQ1Muc79V-103" value="N" style="text;html=1;align=center;verticalAlign=middle;resizable=0;points=[];autosize=1;strokeColor=none;fillColor=none;" parent="1" vertex="1">
          <mxGeometry x="484.95" y="1168" width="30" height="30" as="geometry" />
        </mxCell>
        <mxCell id="xuhgA4gw0YpgQ1Muc79V-104" value="Y" style="text;html=1;align=center;verticalAlign=middle;resizable=0;points=[];autosize=1;strokeColor=none;fillColor=none;" parent="1" vertex="1">
          <mxGeometry x="564.95" y="1230" width="30" height="30" as="geometry" />
        </mxCell>
        <mxCell id="Pxlx5N2snAkm-Ul4sZ53-1" value="Start" style="ellipse;whiteSpace=wrap;html=1;" vertex="1" parent="1">
          <mxGeometry x="-474" y="160" width="110" height="80" as="geometry" />
        </mxCell>
        <mxCell id="Pxlx5N2snAkm-Ul4sZ53-5" style="edgeStyle=orthogonalEdgeStyle;rounded=0;orthogonalLoop=1;jettySize=auto;html=1;exitX=1;exitY=0.5;exitDx=0;exitDy=0;" edge="1" parent="1" source="xuhgA4gw0YpgQ1Muc79V-38">
          <mxGeometry relative="1" as="geometry">
            <mxPoint x="-120" y="640" as="targetPoint" />
            <mxPoint x="-59.5" y="728" as="sourcePoint" />
            <Array as="points">
              <mxPoint x="-14" y="728" />
              <mxPoint x="-14" y="640" />
            </Array>
          </mxGeometry>
        </mxCell>
        <mxCell id="Pxlx5N2snAkm-Ul4sZ53-6" style="edgeStyle=orthogonalEdgeStyle;rounded=0;orthogonalLoop=1;jettySize=auto;html=1;exitX=1;exitY=0.5;exitDx=0;exitDy=0;" edge="1" parent="1" source="xuhgA4gw0YpgQ1Muc79V-81">
          <mxGeometry relative="1" as="geometry">
            <mxPoint x="270" y="630" as="targetPoint" />
            <mxPoint x="328.94" y="703.06" as="sourcePoint" />
            <Array as="points">
              <mxPoint x="380" y="705" />
              <mxPoint x="380" y="630" />
            </Array>
          </mxGeometry>
        </mxCell>
        <mxCell id="Pxlx5N2snAkm-Ul4sZ53-7" style="edgeStyle=orthogonalEdgeStyle;rounded=0;orthogonalLoop=1;jettySize=auto;html=1;exitX=1;exitY=0.5;exitDx=0;exitDy=0;" edge="1" parent="1" source="xuhgA4gw0YpgQ1Muc79V-85">
          <mxGeometry relative="1" as="geometry">
            <mxPoint x="571.2" y="570" as="targetPoint" />
            <mxPoint x="626.2" y="645" as="sourcePoint" />
            <Array as="points">
              <mxPoint x="681.2" y="645" />
              <mxPoint x="681.2" y="570" />
            </Array>
          </mxGeometry>
        </mxCell>
        <mxCell id="Pxlx5N2snAkm-Ul4sZ53-8" value="N" style="text;html=1;align=center;verticalAlign=middle;resizable=0;points=[];autosize=1;strokeColor=none;fillColor=none;" vertex="1" parent="1">
          <mxGeometry x="631.2" y="615" width="30" height="30" as="geometry" />
        </mxCell>
        <mxCell id="Pxlx5N2snAkm-Ul4sZ53-9" value="Y" style="text;html=1;align=center;verticalAlign=middle;resizable=0;points=[];autosize=1;strokeColor=none;fillColor=none;" vertex="1" parent="1">
          <mxGeometry x="566.2" y="690" width="30" height="30" as="geometry" />
        </mxCell>
        <mxCell id="Pxlx5N2snAkm-Ul4sZ53-10" value="Y" style="text;html=1;align=center;verticalAlign=middle;resizable=0;points=[];autosize=1;strokeColor=none;fillColor=none;" vertex="1" parent="1">
          <mxGeometry x="265" y="758" width="30" height="30" as="geometry" />
        </mxCell>
        <mxCell id="Pxlx5N2snAkm-Ul4sZ53-11" value="N" style="text;html=1;align=center;verticalAlign=middle;resizable=0;points=[];autosize=1;strokeColor=none;fillColor=none;" vertex="1" parent="1">
          <mxGeometry x="325" y="678" width="30" height="30" as="geometry" />
        </mxCell>
        <mxCell id="Pxlx5N2snAkm-Ul4sZ53-12" value="N" style="text;html=1;align=center;verticalAlign=middle;resizable=0;points=[];autosize=1;strokeColor=none;fillColor=none;" vertex="1" parent="1">
          <mxGeometry x="-55" y="708" width="30" height="30" as="geometry" />
        </mxCell>
        <mxCell id="Pxlx5N2snAkm-Ul4sZ53-13" value="Y" style="text;html=1;align=center;verticalAlign=middle;resizable=0;points=[];autosize=1;strokeColor=none;fillColor=none;" vertex="1" parent="1">
          <mxGeometry x="-125" y="780" width="30" height="30" as="geometry" />
        </mxCell>
        <mxCell id="Pxlx5N2snAkm-Ul4sZ53-14" value="N" style="text;html=1;align=center;verticalAlign=middle;resizable=0;points=[];autosize=1;strokeColor=none;fillColor=none;" vertex="1" parent="1">
          <mxGeometry x="-233" y="700" width="30" height="30" as="geometry" />
        </mxCell>
        <mxCell id="Pxlx5N2snAkm-Ul4sZ53-15" value="Y" style="text;html=1;align=center;verticalAlign=middle;resizable=0;points=[];autosize=1;strokeColor=none;fillColor=none;" vertex="1" parent="1">
          <mxGeometry x="-304" y="780" width="30" height="30" as="geometry" />
        </mxCell>
        <mxCell id="Pxlx5N2snAkm-Ul4sZ53-16" value="Y" style="text;html=1;align=center;verticalAlign=middle;resizable=0;points=[];autosize=1;strokeColor=none;fillColor=none;" vertex="1" parent="1">
          <mxGeometry x="-525" y="768" width="30" height="30" as="geometry" />
        </mxCell>
        <mxCell id="Pxlx5N2snAkm-Ul4sZ53-17" value="N" style="text;html=1;align=center;verticalAlign=middle;resizable=0;points=[];autosize=1;strokeColor=none;fillColor=none;" vertex="1" parent="1">
          <mxGeometry x="-476.25" y="690" width="30" height="30" as="geometry" />
        </mxCell>
        <mxCell id="Pxlx5N2snAkm-Ul4sZ53-18" value="N" style="text;html=1;align=center;verticalAlign=middle;resizable=0;points=[];autosize=1;strokeColor=none;fillColor=none;" vertex="1" parent="1">
          <mxGeometry x="-645" y="690" width="30" height="30" as="geometry" />
        </mxCell>
        <mxCell id="Pxlx5N2snAkm-Ul4sZ53-20" value="Y" style="text;html=1;align=center;verticalAlign=middle;resizable=0;points=[];autosize=1;strokeColor=none;fillColor=none;" vertex="1" parent="1">
          <mxGeometry x="-720" y="768" width="30" height="30" as="geometry" />
        </mxCell>
        <mxCell id="Pxlx5N2snAkm-Ul4sZ53-23" value="End" style="ellipse;whiteSpace=wrap;html=1;" vertex="1" parent="1">
          <mxGeometry x="-374" y="1420" width="150" height="80" as="geometry" />
        </mxCell>
        <mxCell id="Pxlx5N2snAkm-Ul4sZ53-25" value="" style="edgeStyle=orthogonalEdgeStyle;rounded=0;orthogonalLoop=1;jettySize=auto;html=1;" edge="1" parent="1" source="Pxlx5N2snAkm-Ul4sZ53-24" target="Pxlx5N2snAkm-Ul4sZ53-23">
          <mxGeometry relative="1" as="geometry" />
        </mxCell>
        <mxCell id="Pxlx5N2snAkm-Ul4sZ53-24" value="Parsing payload&amp;nbsp;&lt;br&gt;Upload to MQTT Broker" style="rounded=1;whiteSpace=wrap;html=1;fillColor=#d5e8d4;strokeColor=#82b366;" vertex="1" parent="1">
          <mxGeometry x="-359" y="1318" width="120" height="60" as="geometry" />
        </mxCell>
        <mxCell id="Pxlx5N2snAkm-Ul4sZ53-26" value="End" style="ellipse;whiteSpace=wrap;html=1;" vertex="1" parent="1">
          <mxGeometry x="494.95" y="1370" width="150" height="80" as="geometry" />
        </mxCell>
      </root>
    </mxGraphModel>
  </diagram>
</mxfile>
